<svg width="204" height="35" viewBox="0 0 204 35" fill="none" xmlns="http://www.w3.org/2000/svg">
<path d="M81.5 33L77.5 26.5" stroke="#00F4D7" stroke-width="3"/>
<path d="M2 33.5V2H28.5" stroke="#00F4D7" stroke-width="3"/>
<path d="M9.5 18.5H21" stroke="#00F4D7" stroke-width="3"/>
<path d="M36.5 33.5V2.5" stroke="#00F4D7" stroke-width="3"/>
<path d="M44 34L64.4286 3L75 21" stroke="#00F4D7" stroke-width="3"/>
<path d="M92 33.5V2.5H113L118.5 6.5L121 11.5L118.5 17L113 21H102.5" stroke="#00F4D7" stroke-width="3"/>
<rect x="137" y="11" width="67" height="14" fill="#F6135A"/>
<path d="M160.568 22V14.7273H161.449V18.3352H161.534L164.801 14.7273H165.952L162.898 18.0085L165.952 22H164.886L162.358 18.6193L161.449 19.642V22H160.568ZM167.972 14.7273V22H167.092V14.7273H167.972ZM171.982 22H169.738V14.7273H172.082C172.787 14.7273 173.391 14.8729 173.893 15.1641C174.395 15.4529 174.78 15.8684 175.047 16.4105C175.315 16.9503 175.448 17.5966 175.448 18.3494C175.448 19.107 175.313 19.7592 175.044 20.3061C174.774 20.8506 174.381 21.2696 173.865 21.5632C173.348 21.8544 172.721 22 171.982 22ZM170.619 21.2188H171.926C172.527 21.2188 173.025 21.1027 173.421 20.8707C173.816 20.6387 174.111 20.3085 174.305 19.88C174.499 19.4515 174.596 18.9413 174.596 18.3494C174.596 17.7623 174.5 17.2569 174.308 16.8331C174.117 16.407 173.83 16.0803 173.449 15.853C173.068 15.6233 172.593 15.5085 172.025 15.5085H170.619V21.2188ZM180.903 16.5455C180.86 16.1856 180.687 15.9062 180.384 15.7074C180.081 15.5085 179.71 15.4091 179.269 15.4091C178.947 15.4091 178.666 15.4612 178.424 15.5653C178.185 15.6695 177.998 15.8127 177.863 15.995C177.731 16.1773 177.664 16.3845 177.664 16.6165C177.664 16.8106 177.71 16.9775 177.803 17.1172C177.897 17.2545 178.018 17.3693 178.165 17.4616C178.312 17.5516 178.466 17.6262 178.627 17.6854C178.788 17.7422 178.936 17.7884 179.07 17.8239L179.809 18.0227C179.999 18.0724 180.209 18.1411 180.441 18.2287C180.676 18.3163 180.899 18.4358 181.112 18.5874C181.328 18.7365 181.505 18.9283 181.645 19.1626C181.785 19.397 181.855 19.6847 181.855 20.0256C181.855 20.4186 181.752 20.7737 181.546 21.0909C181.342 21.4081 181.044 21.6603 180.651 21.8473C180.26 22.0343 179.785 22.1278 179.227 22.1278C178.706 22.1278 178.255 22.0438 177.874 21.8757C177.495 21.7076 177.197 21.4732 176.979 21.1726C176.763 20.8719 176.642 20.5227 176.613 20.125H177.522C177.546 20.3996 177.638 20.6269 177.799 20.8068C177.963 20.9844 178.169 21.117 178.417 21.2045C178.668 21.2898 178.938 21.3324 179.227 21.3324C179.563 21.3324 179.865 21.2779 180.132 21.169C180.4 21.0578 180.612 20.9039 180.768 20.7074C180.924 20.5085 181.002 20.2765 181.002 20.0114C181.002 19.7699 180.935 19.5734 180.8 19.4219C180.665 19.2704 180.487 19.1473 180.267 19.0526C180.047 18.9579 179.809 18.875 179.553 18.804L178.659 18.5483C178.09 18.3849 177.641 18.1518 177.309 17.8487C176.978 17.5457 176.812 17.1491 176.812 16.6591C176.812 16.2519 176.922 15.8968 177.142 15.5938C177.365 15.2884 177.663 15.0516 178.037 14.8835C178.414 14.7131 178.834 14.6278 179.298 14.6278C179.767 14.6278 180.183 14.7119 180.548 14.88C180.912 15.0457 181.201 15.273 181.414 15.5618C181.63 15.8506 181.743 16.1785 181.755 16.5455H180.903Z" fill="black"/>
</svg>
